<?xml version="1.0" standalone="no"?>
<!DOCTYPE svg PUBLIC "-//W3C//DTD SVG 20010904//EN"
 "http://www.w3.org/TR/2001/REC-SVG-20010904/DTD/svg10.dtd">
<svg version="1.0" xmlns="http://www.w3.org/2000/svg"
 width="576.000000pt" height="338.400000pt" viewBox="0 0 576.000000 338.400000"
 preserveAspectRatio="xMidYMid meet">
<metadata>
Created by potrace 1.16, written by Peter Selinger 2001-2019
</metadata>
<g transform="translate(0.000000,338.400000) scale(0.142222,-0.142185)"
fill="#27763c" stroke="none">
<path d="M1645 2053 c-14 -94 -64 -159 -175 -227 -51 -31 -63 -34 -155 -38
-88 -4 -109 -9 -177 -41 -133 -61 -276 -187 -388 -340 -19 -27 -44 -60 -56
-75 -11 -15 -29 -43 -40 -61 -10 -19 -28 -45 -38 -58 l-20 -23 -25 24 c-34 31
-100 42 -138 23 -93 -49 -157 -222 -124 -339 18 -63 54 -84 192 -109 113 -21
201 -22 326 -3 l42 7 -10 -34 c-31 -104 -47 -201 -38 -234 9 -30 14 -35 40
-35 58 0 97 29 277 210 100 101 185 181 188 177 4 -4 -10 -51 -31 -104 -21
-57 -39 -124 -42 -160 -5 -56 -3 -63 20 -87 49 -49 123 -46 183 6 l35 31 28
-27 c30 -29 78 -46 126 -46 81 1 206 72 301 171 32 32 60 59 63 59 3 0 7 -33
8 -74 4 -161 100 -245 208 -182 45 27 118 108 139 156 14 32 109 190 112 187
1 -1 -2 -22 -6 -47 -22 -111 -7 -203 41 -246 25 -22 110 -30 166 -15 44 12
129 87 206 181 21 25 35 38 32 30 -10 -27 13 -148 32 -174 23 -31 54 -46 96
-46 66 0 105 19 156 77 28 31 51 61 51 66 0 4 11 32 24 60 28 60 47 123 38
131 -16 17 -31 -2 -62 -76 -55 -136 -115 -218 -160 -218 -9 0 -26 10 -38 23
-32 34 -29 146 7 310 22 102 25 130 15 134 -21 8 -30 -2 -111 -125 -139 -211
-246 -329 -307 -339 -31 -5 -36 -2 -50 25 -35 67 -15 217 45 356 22 50 41 95
42 100 3 16 -80 30 -107 18 -12 -5 -42 -41 -65 -78 -23 -38 -60 -96 -81 -129
-21 -33 -59 -94 -84 -135 -48 -81 -97 -134 -134 -145 -17 -5 -30 1 -56 27 -28
28 -35 43 -41 96 -7 63 11 232 25 232 4 0 10 12 13 28 9 41 44 91 73 104 24
11 28 9 53 -21 25 -30 28 -31 41 -16 8 10 10 19 4 23 -5 4 -14 16 -20 27 -8
15 -23 21 -56 23 -42 3 -48 0 -100 -51 -39 -39 -68 -81 -98 -143 -36 -76 -57
-103 -137 -182 -71 -70 -111 -100 -159 -123 -72 -33 -85 -34 -116 -16 -39 22
-48 35 -48 72 0 32 4 38 43 55 165 76 297 200 297 281 0 33 -5 42 -37 64 -76
51 -175 20 -281 -89 -34 -35 -62 -66 -62 -70 0 -4 -13 -26 -28 -49 -37 -55
-52 -103 -52 -161 0 -39 -5 -51 -27 -71 -33 -29 -69 -32 -77 -7 -4 10 10 65
29 123 64 186 77 246 57 275 -13 20 -49 22 -73 3 -13 -10 -29 -19 -34 -19 -10
0 -128 -114 -315 -305 -52 -53 -103 -101 -113 -107 -17 -9 -18 -7 -12 24 4 18
24 78 44 133 31 83 43 104 72 123 19 13 50 35 69 49 43 32 250 243 250 255 0
5 11 24 24 41 36 48 119 214 140 281 25 78 27 189 4 212 -27 27 -107 30 -156
5 -50 -26 -132 -108 -168 -168 -14 -25 -37 -61 -49 -79 -40 -59 -122 -235
-192 -414 l-69 -174 -39 -9 c-22 -5 -94 -7 -161 -4 -94 4 -132 9 -169 26 -26
11 -56 21 -67 21 -61 0 -86 56 -64 149 29 125 97 179 144 114 16 -22 28 -28
60 -28 51 0 71 18 118 104 100 182 238 359 337 435 112 85 167 104 304 109 75
2 107 7 120 19 10 8 34 23 54 32 50 23 112 82 148 139 l30 49 23 -39 c48 -78
64 -131 60 -203 -1 -14 -20 -45 -42 -69 -44 -48 -45 -50 -27 -74 11 -15 45
-17 292 -21 267 -4 505 -23 565 -46 14 -5 62 -16 108 -24 86 -16 258 -66 327
-96 22 -9 56 -22 75 -29 69 -22 270 -131 242 -131 -8 0 -12 -6 -9 -12 2 -7 15
-12 29 -10 24 3 88 -27 116 -55 29 -28 60 -4 56 45 0 12 4 22 10 21 26 -3 36
2 36 19 0 13 7 18 23 18 16 -1 23 5 25 22 3 17 8 21 21 17 32 -10 46 20 31 65
-7 22 -19 40 -26 40 -10 0 -11 -6 -4 -26 13 -34 12 -43 -3 -23 -16 21 -53 40
-61 32 -3 -3 -6 -15 -6 -25 0 -13 -7 -18 -26 -18 -24 0 -26 -3 -20 -32 4 -24
3 -29 -4 -16 -6 10 -18 14 -31 11 -18 -5 -20 -11 -14 -37 20 -88 23 -83 -29
-47 -40 28 -45 35 -36 52 16 29 2 44 -21 23 -17 -16 -20 -16 -45 2 -84 59
-305 174 -336 174 -9 0 -19 4 -22 9 -10 15 -225 82 -361 111 -186 41 -310 53
-557 54 -120 0 -218 2 -218 4 0 2 5 13 11 25 14 25 14 134 1 150 -6 7 -15 30
-22 52 -18 61 -119 189 -151 193 -25 3 -27 -1 -34 -45z m-151 -436 c16 -25
-15 -158 -59 -247 -59 -123 -77 -155 -86 -158 -5 -2 -9 -10 -9 -18 0 -8 -4
-14 -8 -14 -5 0 -14 -10 -19 -22 -24 -50 -266 -289 -279 -275 -10 9 118 293
183 407 74 131 99 171 133 219 51 71 110 133 123 128 6 -2 15 -11 21 -20z
m406 -661 c0 -25 -54 -97 -105 -138 -40 -33 -167 -109 -173 -103 -2 2 6 26 19
52 25 52 160 193 184 193 8 0 15 5 15 10 0 6 14 10 30 10 25 0 30 -4 30 -24z"/>
</g>
</svg>
